name rise44.9368peak50.754fall52.0217.mot
datacolumns 19
datarows 36
range 12.59162000000000 12.64995200000000
endheader
time	ground_force1_vx	ground_force1_vy	ground_force1_vz	ground_force1_px	ground_force1_py	ground_force1_pz	ground_force2_vx	ground_force2_vy	ground_force2_vz	ground_force2_px	ground_force2_py	ground_force2_pz	ground_torque1_x	ground_torque1_y	ground_torque1_z	ground_torque2_x	ground_torque2_y	ground_torque2_z	
12.59162000000000	37.85328600000000	653.97582899999998	47.05927400000000	0.34423900000000	0.00000000000000	0.11463000000000	-10.99138100000000	71.97035099999999	2.86814100000000	0.02411000000000	0.00000000000000	-0.08536000000000	0.00000000000000	23.33694400000000	0.00000000000000	0.00000000000000	-2.17063000000000	0.00000000000000	
12.59329300000000	37.23328300000000	657.25479700000005	47.46518500000000	0.34270100000000	0.00000000000000	0.11470500000000	-9.79310800000000	65.57731699999999	2.69283300000000	0.01460600000000	0.00000000000000	-0.08539000000000	0.00000000000000	23.62760600000000	0.00000000000000	0.00000000000000	-1.95143500000000	0.00000000000000	
12.59495400000000	36.62414600000000	660.54606100000001	47.87831500000000	0.34121000000000	0.00000000000000	0.11477900000000	-8.61043100000000	59.04600500000000	2.49338300000000	0.00420000000000	0.00000000000000	-0.08545000000000	0.00000000000000	23.92026300000000	0.00000000000000	0.00000000000000	-1.73560200000000	0.00000000000000	
12.59662400000000	36.02643100000000	663.84802200000001	48.29827900000000	0.33976500000000	0.00000000000000	0.11485200000000	-7.45330200000000	52.41642100000000	2.27218500000000	-0.00722800000000	0.00000000000000	-0.08554200000000	0.00000000000000	24.21466900000000	0.00000000000000	0.00000000000000	-1.52410900000000	0.00000000000000	
12.59829100000000	35.44061400000000	667.15884800000003	48.72462700000000	0.33836800000000	0.00000000000000	0.11492300000000	-6.33364500000000	45.75303800000000	2.03299600000000	-0.01982200000000	0.00000000000000	-0.08567000000000	0.00000000000000	24.51054300000000	0.00000000000000	0.00000000000000	-1.31825500000000	0.00000000000000	
12.59995900000000	34.86708900000000	670.47647800000004	49.15683700000000	0.33701800000000	0.00000000000000	0.11499400000000	-5.26483300000000	39.14289800000000	1.78087000000000	-0.03375900000000	0.00000000000000	-0.08583600000000	0.00000000000000	24.80757500000000	0.00000000000000	0.00000000000000	-1.11962100000000	0.00000000000000	
12.60162100000000	34.30616900000000	673.79863899999998	49.59432600000000	0.33571600000000	0.00000000000000	0.11506300000000	-4.26093200000000	32.69116700000000	1.52195800000000	-0.04925500000000	0.00000000000000	-0.08604500000000	0.00000000000000	25.10542500000000	0.00000000000000	0.00000000000000	-0.93001100000000	0.00000000000000	
12.60329400000000	33.75808900000000	677.12284999999997	50.03644700000000	0.33446300000000	0.00000000000000	0.11513100000000	-3.33575400000000	26.51422600000000	1.26317100000000	-0.06658300000000	0.00000000000000	-0.08630100000000	0.00000000000000	25.40372300000000	0.00000000000000	0.00000000000000	-0.75135100000000	0.00000000000000	
12.60495200000000	33.22301000000000	680.44643900000005	50.48249500000000	0.33325800000000	0.00000000000000	0.11519700000000	-2.50178200000000	20.73076300000000	1.01172200000000	0.00000000000000	0.00000000000000	0.00000000000000	0.00000000000000	25.70207600000000	0.00000000000000	0.00000000000000	-0.28177800000000	0.00000000000000	
12.60662100000000	32.70101700000000	683.76655200000005	50.93170800000000	0.33210100000000	0.00000000000000	0.11526200000000	-1.76911100000000	15.45184700000000	0.77460600000000	0.00000000000000	0.00000000000000	0.00000000000000	0.00000000000000	26.00006200000000	0.00000000000000	0.00000000000000	-0.19669600000000	0.00000000000000	
12.60829300000000	32.19212400000000	687.08016799999996	51.38327700000000	0.33099000000000	0.00000000000000	0.11532500000000	-1.14453300000000	10.77127000000000	0.55806400000000	0.00000000000000	0.00000000000000	0.00000000000000	0.00000000000000	26.29723600000000	0.00000000000000	0.00000000000000	-0.12475500000000	0.00000000000000	
12.60995800000000	31.69627700000000	690.38411199999996	51.83634100000000	0.32992700000000	0.00000000000000	0.11538600000000	-0.63090600000000	6.75756900000000	0.36713600000000	0.00000000000000	0.00000000000000	0.00000000000000	0.00000000000000	26.59313100000000	0.00000000000000	0.00000000000000	-0.06612700000000	0.00000000000000	
12.61162500000000	31.21335500000000	693.67506800000001	52.29000100000000	0.32890900000000	0.00000000000000	0.11544600000000	-0.22689900000000	3.44876900000000	0.20533200000000	0.00000000000000	0.00000000000000	0.00000000000000	0.00000000000000	26.88726000000000	0.00000000000000	0.00000000000000	-0.02050300000000	0.00000000000000	
12.61329400000000	30.74317600000000	696.94959800000004	52.74331700000000	0.32793600000000	0.00000000000000	0.11550300000000	0.00000000000000	0.00000000000000	0.00000000000000	0.00000000000000	0.00000000000000	0.00000000000000	0.00000000000000	27.17911800000000	0.00000000000000	0.00000000000000	0.00000000000000	0.00000000000000	
12.61495100000000	30.28549900000000	700.20415200000002	53.19531700000000	0.32700600000000	0.00000000000000	0.11555800000000	0.00000000000000	0.00000000000000	0.00000000000000	0.00000000000000	0.00000000000000	0.00000000000000	0.00000000000000	27.46818300000000	0.00000000000000	0.00000000000000	0.00000000000000	0.00000000000000	
12.61662500000000	29.84002600000000	703.43508599999996	53.64499900000000	0.32611800000000	0.00000000000000	0.11561200000000	0.00000000000000	0.00000000000000	0.00000000000000	0.00000000000000	0.00000000000000	0.00000000000000	0.00000000000000	27.75391900000000	0.00000000000000	0.00000000000000	0.00000000000000	0.00000000000000	
12.61829000000000	29.40640800000000	706.63867700000003	54.09134000000000	0.32527100000000	0.00000000000000	0.11566300000000	0.00000000000000	0.00000000000000	0.00000000000000	0.00000000000000	0.00000000000000	0.00000000000000	0.00000000000000	28.03577800000000	0.00000000000000	0.00000000000000	0.00000000000000	0.00000000000000	
12.61995800000000	28.98424800000000	709.81114200000002	54.53330000000000	0.32446300000000	0.00000000000000	0.11571300000000	0.00000000000000	0.00000000000000	0.00000000000000	0.00000000000000	0.00000000000000	0.00000000000000	0.00000000000000	28.31320500000000	0.00000000000000	0.00000000000000	0.00000000000000	0.00000000000000	
12.62162200000000	28.57310200000000	712.94864800000005	54.96982300000000	0.32369300000000	0.00000000000000	0.11576000000000	0.00000000000000	0.00000000000000	0.00000000000000	0.00000000000000	0.00000000000000	0.00000000000000	0.00000000000000	28.58563300000000	0.00000000000000	0.00000000000000	0.00000000000000	0.00000000000000	
12.62328700000000	28.17248900000000	716.04733399999998	55.39985000000000	0.32295700000000	0.00000000000000	0.11580500000000	0.00000000000000	0.00000000000000	0.00000000000000	0.00000000000000	0.00000000000000	0.00000000000000	0.00000000000000	28.85249500000000	0.00000000000000	0.00000000000000	0.00000000000000	0.00000000000000	
12.62495900000000	27.78189000000000	719.10332500000004	55.82231700000000	0.32225500000000	0.00000000000000	0.11584800000000	0.00000000000000	0.00000000000000	0.00000000000000	0.00000000000000	0.00000000000000	0.00000000000000	0.00000000000000	29.11321900000000	0.00000000000000	0.00000000000000	0.00000000000000	0.00000000000000	
12.62662400000000	27.40075300000000	722.11274500000002	56.23616700000000	0.32158400000000	0.00000000000000	0.11588900000000	0.00000000000000	0.00000000000000	0.00000000000000	0.00000000000000	0.00000000000000	0.00000000000000	0.00000000000000	29.36723500000000	0.00000000000000	0.00000000000000	0.00000000000000	0.00000000000000	
12.62828900000000	27.02850000000000	725.07173699999998	56.64035000000000	0.32094300000000	0.00000000000000	0.11592700000000	0.00000000000000	0.00000000000000	0.00000000000000	0.00000000000000	0.00000000000000	0.00000000000000	0.00000000000000	29.61397600000000	0.00000000000000	0.00000000000000	0.00000000000000	0.00000000000000	
12.62995700000000	26.66452600000000	727.97647700000005	57.03383200000000	0.32032800000000	0.00000000000000	0.11596400000000	0.00000000000000	0.00000000000000	0.00000000000000	0.00000000000000	0.00000000000000	0.00000000000000	0.00000000000000	29.85288100000000	0.00000000000000	0.00000000000000	0.00000000000000	0.00000000000000	
12.63162100000000	26.30820900000000	730.82318699999996	57.41559900000000	0.31973800000000	0.00000000000000	0.11599800000000	0.00000000000000	0.00000000000000	0.00000000000000	0.00000000000000	0.00000000000000	0.00000000000000	0.00000000000000	30.08339700000000	0.00000000000000	0.00000000000000	0.00000000000000	0.00000000000000	
12.63328600000000	25.95890800000000	733.60815400000001	57.78466300000000	0.31916900000000	0.00000000000000	0.11603100000000	0.00000000000000	0.00000000000000	0.00000000000000	0.00000000000000	0.00000000000000	0.00000000000000	0.00000000000000	30.30498300000000	0.00000000000000	0.00000000000000	0.00000000000000	0.00000000000000	
12.63495800000000	25.61597300000000	736.32774099999995	58.14006500000000	0.31862100000000	0.00000000000000	0.11606100000000	0.00000000000000	0.00000000000000	0.00000000000000	0.00000000000000	0.00000000000000	0.00000000000000	0.00000000000000	30.51711200000000	0.00000000000000	0.00000000000000	0.00000000000000	0.00000000000000	
12.63662100000000	25.27874400000000	738.97839999999997	58.48088200000000	0.31809000000000	0.00000000000000	0.11609000000000	0.00000000000000	0.00000000000000	0.00000000000000	0.00000000000000	0.00000000000000	0.00000000000000	0.00000000000000	30.71927300000000	0.00000000000000	0.00000000000000	0.00000000000000	0.00000000000000	
12.63828600000000	24.94655900000000	741.55668900000001	58.80623100000000	0.31757300000000	0.00000000000000	0.11611600000000	0.00000000000000	0.00000000000000	0.00000000000000	0.00000000000000	0.00000000000000	0.00000000000000	0.00000000000000	30.91097600000000	0.00000000000000	0.00000000000000	0.00000000000000	0.00000000000000	
12.63995300000000	24.61875400000000	744.05928100000006	59.11527400000000	0.31706900000000	0.00000000000000	0.11614100000000	0.00000000000000	0.00000000000000	0.00000000000000	0.00000000000000	0.00000000000000	0.00000000000000	0.00000000000000	31.09175100000000	0.00000000000000	0.00000000000000	0.00000000000000	0.00000000000000	
12.64162500000000	24.29467000000000	746.48297900000000	59.40722000000000	0.31657400000000	0.00000000000000	0.11616400000000	0.00000000000000	0.00000000000000	0.00000000000000	0.00000000000000	0.00000000000000	0.00000000000000	0.00000000000000	31.26115500000000	0.00000000000000	0.00000000000000	0.00000000000000	0.00000000000000	
12.64328700000000	23.97365300000000	748.82472399999995	59.68133200000000	0.31608600000000	0.00000000000000	0.11618500000000	0.00000000000000	0.00000000000000	0.00000000000000	0.00000000000000	0.00000000000000	0.00000000000000	0.00000000000000	31.41877100000000	0.00000000000000	0.00000000000000	0.00000000000000	0.00000000000000	
12.64495200000000	23.65506300000000	751.08160799999996	59.93692800000000	0.31560300000000	0.00000000000000	0.11620400000000	0.00000000000000	0.00000000000000	0.00000000000000	0.00000000000000	0.00000000000000	0.00000000000000	0.00000000000000	31.56421000000000	0.00000000000000	0.00000000000000	0.00000000000000	0.00000000000000	
12.64662500000000	23.33827000000000	753.25088300000004	60.17338500000000	0.31512200000000	0.00000000000000	0.11622200000000	0.00000000000000	0.00000000000000	0.00000000000000	0.00000000000000	0.00000000000000	0.00000000000000	0.00000000000000	31.69711700000000	0.00000000000000	0.00000000000000	0.00000000000000	0.00000000000000	
12.64828900000000	23.02266400000000	755.32997100000000	60.39014300000000	0.31464100000000	0.00000000000000	0.11623900000000	0.00000000000000	0.00000000000000	0.00000000000000	0.00000000000000	0.00000000000000	0.00000000000000	0.00000000000000	31.81716900000000	0.00000000000000	0.00000000000000	0.00000000000000	0.00000000000000	
12.64995200000000	22.70765100000000	757.31646899999998	60.58670600000000	0.31415700000000	0.00000000000000	0.11625400000000	0.00000000000000	0.00000000000000	0.00000000000000	0.00000000000000	0.00000000000000	0.00000000000000	0.00000000000000	31.92407900000000	0.00000000000000	0.00000000000000	0.00000000000000	0.00000000000000	
